PathFileType	4	(X/Y/Z)	C:/Users/opensim2020/Desktop/walking_exp_matlab/subject06_walking12_straigt_02.trc	
DataRate	CameraRate	NumFrames	NumMarkers	Units	OrigDataRate	OrigDataStartFrame	OrigNumFrames	
100.00	100.00	9	48	mm	100.00	1547	215	
Frame#	Time	LFHD			RFHD			LBHD			RBHD			C7			T10			CLAV			STRN			RBAK			LSHO			LUPA			LELB			LFRM			LWRA			LWRB			LFIN			RSHO			RUPA			RELB			RFRM			RWRA			RWRB			RFIN			LASI			RASI			LPSI			RPSI			LTHI			LKNE			LTIB			LANK			LHEE			LTOE			RTHI			RKNE			RTIB			RANK			RHEE			RTOE			*39			*40			*41			*42			*43			*44			*45			*46			*47			
		X1	Y1	Z1	X2	Y2	Z2	X3	Y3	Z3	X4	Y4	Z4	X5	Y5	Z5	X6	Y6	Z6	X7	Y7	Z7	X8	Y8	Z8	X9	Y9	Z9	X10	Y10	Z10	X11	Y11	Z11	X12	Y12	Z12	X13	Y13	Z13	X14	Y14	Z14	X15	Y15	Z15	X16	Y16	Z16	X17	Y17	Z17	X18	Y18	Z18	X19	Y19	Z19	X20	Y20	Z20	X21	Y21	Z21	X22	Y22	Z22	X23	Y23	Z23	X24	Y24	Z24	X25	Y25	Z25	X26	Y26	Z26	X27	Y27	Z27	X28	Y28	Z28	X29	Y29	Z29	X30	Y30	Z30	X31	Y31	Z31	X32	Y32	Z32	X33	Y33	Z33	X34	Y34	Z34	X35	Y35	Z35	X36	Y36	Z36	X37	Y37	Z37	X38	Y38	Z38	X39	Y39	Z39	X40	Y40	Z40	X41	Y41	Z41	X42	Y42	Z42	X43	Y43	Z43	X44	Y44	Z44	X45	Y45	Z45	X46	Y46	Z46	X47	Y47	Z47	X48	Y48	Z48	

108	1.070	1472.59937	120.60168	1674.83618	1340.93164	124.15296	1662.48010	1476.01538	256.66162	1626.16028	1346.74878	258.82272	1619.70837	1417.03992	261.52481	1461.74512	1402.37756	291.22769	1132.66125	1416.99280	150.42010	1386.69922	1421.91418	106.26180	1211.22437	1333.33545	328.55597	1289.56604	1578.50745	212.00446	1414.51172	1641.45898	224.47232	1209.11401	1646.59961	234.05302	1096.65125	1668.16370	214.08751	947.44696	1630.98633	148.04611	833.22369	1660.62122	213.36028	827.92633	1665.56409	171.77745	747.28821	1255.61450	195.14661	1419.51917	1167.22876	220.83647	1218.71289	1155.37805	203.61661	1098.37207	1138.89038	168.75124	983.59100	1170.05725	80.37093	860.56403	1132.74084	135.49635	850.35736	1129.76733	84.66597	783.22833	1509.48535	119.89943	968.51855	1291.43701	118.46308	977.87268	1483.06702	278.02451	996.51764	1315.18762	269.13806	1006.18402	1568.42346	129.72910	657.81610	1547.98315	77.52631	503.77271	1541.55042	230.98897	312.64014	1505.99597	333.47574	173.68063	1457.63269	373.35977	180.32590	1512.41821	234.89090	70.03188	1239.21423	180.49872	642.50299	1265.65271	178.95496	517.12646	1274.26184	242.91542	256.07446	1326.10718	268.65369	72.86983	1371.10754	309.29688	49.65783	1325.56689	116.31284	36.59947	1414.84082	220.39900	1717.06787																								 
109	1.080	1472.97327	109.59093	1674.20300	1341.28931	112.86200	1662.05127	1475.96924	245.68083	1625.72180	1346.69177	247.64777	1619.40161	1416.80420	250.67989	1461.44128	1401.74402	280.82370	1132.43066	1416.87439	139.58012	1386.24072	1421.52527	95.69324	1210.71765	1332.59839	317.79242	1289.36536	1578.28503	201.48764	1413.97070	1641.26050	217.15865	1208.85974	1646.40210	228.86238	1096.72375	1667.74316	212.88390	946.84857	1630.33374	151.01299	830.69226	1661.76526	216.49605	828.14539	1665.10425	177.59772	745.40161	1255.50574	184.11386	1419.38745	1166.97363	207.84787	1218.49976	1154.97571	188.88757	1098.41150	1138.40869	151.26950	984.60614	1169.18054	59.23727	864.40588	1132.48315	114.36697	852.42224	1129.11194	61.37253	787.02563	1508.64844	109.09695	968.59845	1290.67212	108.46778	977.21545	1482.70178	267.50943	996.25659	1314.81616	259.00284	1005.61719	1569.70642	113.28806	660.21283	1547.94409	60.80979	505.95712	1540.92334	207.26880	308.43982	1504.91785	303.53033	164.97983	1456.06580	343.33319	169.59219	1512.79443	200.01747	66.71733	1239.52112	173.00513	641.64252	1265.59412	173.41078	516.21594	1274.70984	240.39946	255.91029	1326.47473	268.21582	73.01541	1371.42871	309.06934	49.97310	1325.46069	116.21733	36.53468	1415.00220	209.20418	1716.63159																								 
110	1.090	1473.42004	98.46732	1673.49255	1341.65625	101.57206	1661.49341	1476.02307	234.72980	1625.15247	1346.70508	236.43604	1618.99805	1416.56494	239.79964	1460.93323	1400.97754	270.27753	1131.99561	1416.84424	128.78519	1385.62939	1421.18140	85.19632	1210.08960	1331.95532	306.97964	1289.02588	1578.14063	190.82361	1413.30920	1641.04773	210.00079	1208.63586	1646.34375	223.83632	1096.87524	1668.00696	211.81807	946.95264	1629.71863	153.71419	828.58856	1661.79944	218.80090	828.05750	1664.63855	182.92664	743.99664	1255.39966	173.13268	1419.13831	1166.82568	194.94476	1218.19067	1154.68909	174.30467	1098.44043	1138.06445	133.92000	985.71381	1168.47693	38.28389	868.43451	1132.20667	93.35308	854.65381	1128.43994	38.43754	791.00586	1507.92346	98.42867	968.51672	1290.09326	98.33987	976.51697	1482.21704	257.03064	995.82977	1314.35962	248.80714	1004.88257	1570.21399	99.25708	661.26428	1547.81201	44.73866	507.79459	1540.32764	183.49942	303.87402	1503.76379	272.91040	156.16161	1454.67053	312.48495	158.59631	1512.98669	164.13881	63.63705	1239.86841	165.35651	640.74207	1265.61072	167.52818	515.24536	1275.06677	237.74515	255.75079	1326.77368	267.76819	73.18494	1371.83838	308.59210	50.13041	1325.34363	116.43822	36.51793	1415.26550	197.97833	1716.09692																								 
111	1.100	1473.80322	87.39220	1672.63965	1342.02515	90.28008	1660.83789	1476.09106	223.72980	1624.46973	1346.79102	225.20309	1618.46277	1416.52502	228.89285	1460.34680	1400.26318	259.73181	1131.45703	1416.81641	117.99700	1384.92834	1420.87219	74.57713	1209.36816	1331.31689	296.21271	1288.59265	1577.99915	180.30379	1412.55029	1640.97571	202.84784	1208.41077	1646.20325	219.11719	1097.02222	1667.96179	210.61520	946.89075	1629.11267	156.17270	826.94031	1661.90259	220.42648	828.01300	1664.18835	187.56906	743.02283	1255.34912	162.18008	1418.75598	1166.61267	181.82907	1217.80493	1154.50073	159.79907	1098.42871	1137.70837	116.68674	986.88995	1167.83105	17.55798	872.59698	1132.30750	72.46732	856.90326	1127.94031	15.58409	795.22260	1507.40405	87.77383	968.32874	1289.55981	88.09921	975.59686	1481.77759	246.52589	995.27051	1313.85376	238.46854	1003.95923	1570.69348	85.49552	662.13293	1547.86609	29.11384	509.52438	1539.82959	159.69220	299.15948	1502.81799	241.40869	147.10229	1452.93665	280.32938	147.24963	1513.56213	128.10637	60.75488	1240.29407	157.48283	639.78217	1265.81860	161.21468	514.20422	1275.37061	234.81487	255.51678	1326.99597	267.24817	73.36510	1372.09607	308.39996	50.49996	1325.30542	116.13570	36.42648	1415.53455	186.74051	1715.47803																								 
112	1.110	1474.18384	76.29792	1671.65442	1342.43909	78.92837	1660.04968	1476.22205	212.66930	1623.68298	1346.94678	213.93414	1617.85803	1416.44446	217.99490	1459.66199	1399.56836	249.05537	1130.75623	1416.83569	107.15185	1384.08862	1420.53247	63.98027	1208.48828	1330.75208	285.43634	1288.02637	1577.91943	169.63390	1411.71875	1640.93140	195.78406	1208.19958	1646.16016	214.48335	1097.19165	1667.93750	209.37035	946.95410	1628.34558	158.25897	825.67474	1662.12488	221.81400	828.35016	1663.77197	191.68611	742.42657	1255.31079	151.18701	1418.32007	1166.57544	169.17511	1217.26099	1154.40283	145.45296	1098.30847	1137.45068	99.61362	988.00177	1167.37073	-2.82335	876.80774	1132.18188	51.65780	859.42035	1127.55725	-7.02126	799.50378	1507.00525	77.01058	967.92389	1289.11096	77.79948	974.40863	1481.39404	236.01381	994.55365	1313.38123	228.07393	1002.89154	1570.86011	72.04393	662.99091	1547.91809	13.96938	510.99689	1539.44800	135.76656	294.31516	1501.98401	209.35446	138.21553	1451.77222	247.95865	136.14398	1514.29883	91.69018	58.19341	1240.92993	149.31531	638.60907	1266.15503	154.70479	513.03912	1275.69653	231.47073	255.26468	1327.20166	266.70062	73.46428	1372.19702	308.21573	50.88136	1325.35620	115.90250	36.31820	1415.86914	175.52211	1714.68311																								 
113	1.120	1474.64990	65.21014	1670.57080	1342.86353	67.68800	1659.15527	1476.45593	201.59727	1622.76050	1347.13025	202.68781	1617.15100	1416.31592	207.17961	1458.85522	1398.86096	238.38060	1129.86853	1416.90173	96.31245	1383.19275	1420.29321	53.30851	1207.49902	1330.22937	274.63892	1287.40601	1577.96008	158.90904	1410.83618	1640.97046	188.69893	1207.93933	1646.17786	209.86189	1097.46252	1667.92188	208.01965	947.08289	1628.19226	160.04359	824.76147	1662.28796	223.14928	828.82770	1663.33289	195.22192	742.06586	1255.36633	140.22743	1417.65662	1166.48169	156.71494	1216.64917	1154.31104	131.30058	1098.08887	1137.25366	82.74413	989.13831	1167.11865	-22.89655	881.15082	1132.25024	31.09887	861.94061	1127.19458	-29.04760	803.85968	1506.61621	66.37505	967.31763	1288.77856	67.36492	973.14691	1481.10205	225.45517	993.72296	1313.03638	217.61235	1001.71973	1571.67505	58.58388	663.80469	1548.12439	-0.57059	512.24792	1538.88123	112.02203	289.33844	1501.43445	176.65982	129.39421	1450.53540	214.13914	124.87968	1515.15063	54.90824	56.14920	1241.50623	140.84021	637.41742	1266.47974	147.92056	511.86908	1275.98193	227.94128	254.95956	1327.35876	266.09076	73.66162	1372.30505	308.01724	51.37318	1325.40808	115.71205	36.16915	1416.25354	164.27167	1713.82385																								 
114	1.130	1475.14392	53.87042	1669.45117	1343.30591	56.39202	1658.18909	1476.69519	190.48419	1621.74841	1347.36707	191.41531	1616.34351	1416.31287	196.05254	1457.87036	1398.20923	227.63174	1128.87366	1417.05457	85.38055	1382.17322	1420.14990	42.54469	1206.52100	1329.71118	263.77408	1286.62280	1577.99902	148.24539	1409.80212	1641.07593	181.61169	1207.78015	1646.20789	205.16000	1097.78271	1667.56128	206.69019	947.13776	1627.68555	161.50278	823.92969	1662.45764	224.57387	829.58752	1662.93726	198.40317	741.99438	1255.50769	129.24281	1416.88379	1166.50403	144.31877	1215.92444	1154.17773	117.23292	1097.80859	1137.27319	65.95563	990.22491	1166.98181	-42.64381	885.30823	1132.57483	10.92118	864.42773	1127.10413	-50.95425	808.39722	1506.41675	55.58942	966.73297	1288.61682	57.49128	971.54773	1480.89722	214.87169	992.86292	1312.72937	207.04982	1000.48553	1572.20837	45.82594	664.15161	1548.15063	-14.33283	512.98456	1538.69739	87.97955	284.29709	1500.97974	143.18648	120.88702	1449.90527	180.21442	114.28127	1515.93689	17.77543	54.81859	1242.17285	132.19530	636.12091	1266.80774	141.19798	510.59793	1276.29822	224.43643	254.66096	1327.57117	265.45557	73.91036	1372.37732	307.81049	51.86907	1325.71704	115.31123	35.88079	1416.64160	153.00168	1712.85779																								 
115	1.140	1475.55920	42.76762	1668.15417	1343.74683	45.09409	1657.10828	1477.02258	179.34557	1620.62781	1347.65747	180.23831	1615.37488	1416.48633	185.00237	1456.86060	1397.75977	216.72333	1127.88452	1417.25549	74.47893	1381.06311	1420.02588	31.72513	1205.36023	1329.37585	252.87735	1285.76550	1578.04785	137.53146	1408.74341	1641.15991	174.37263	1207.61646	1646.25195	200.20488	1098.06726	1667.56116	205.01062	947.53503	1627.47095	162.42877	823.39001	1662.17664	225.11145	830.23584	1662.66296	201.05510	742.19275	1255.70959	118.24399	1415.98792	1166.47644	132.00769	1215.07263	1154.07251	103.35790	1097.37683	1137.18347	49.53923	991.24194	1167.02771	-61.98668	889.56500	1132.77844	-8.98083	867.04327	1127.12207	-72.60191	812.95361	1506.25793	44.80049	965.97375	1288.48413	46.48631	970.27740	1480.83643	204.15321	991.89514	1312.63831	196.38690	999.16809	1572.70642	33.44173	664.23663	1548.32031	-27.74180	513.37872	1538.75220	63.78463	279.17557	1500.88098	109.29994	112.79324	1449.70813	145.85976	104.26122	1516.36218	-19.96057	53.91893	1242.88184	123.58066	634.74622	1267.24390	134.24190	509.27100	1276.68726	221.05551	254.38634	1327.74500	264.87012	74.21284	1372.49255	307.57092	52.41051	1325.84412	115.06336	35.72096	1417.09436	141.68942	1711.75659																								 
116	1.150	1476.02039	31.58175	1666.76855	1344.16028	33.88604	1655.96521	1477.36755	168.18407	1619.38184	1347.97156	168.92662	1614.29834	1416.53320	174.06950	1455.76050	1397.34875	205.91078	1126.72668	1417.53345	63.32194	1379.80713	1420.04443	20.86652	1204.17773	1329.08557	241.87515	1284.71826	1578.15356	126.81284	1407.59985	1641.30017	167.01392	1207.46521	1646.30396	194.95746	1098.46228	1667.85706	202.91989	948.17932	1627.45020	162.91049	823.03687	1662.05005	225.52350	831.12952	1662.44482	203.24655	742.57239	1255.91943	107.18640	1415.00500	1166.52234	119.65477	1214.19629	1153.96375	89.54945	1096.86816	1137.34558	33.06283	992.21582	1167.25635	-81.02776	893.74353	1133.03638	-28.66814	869.71423	1127.31348	-93.94937	817.63745	1506.26868	33.92657	965.03857	1288.41992	35.84720	968.70959	1480.81140	193.41309	990.87561	1312.54321	185.69496	997.82031	1573.23804	21.61016	663.94348	1548.53650	-40.46735	513.35840	1538.90002	39.41304	274.03754	1501.01709	74.90826	105.26230	1449.85791	110.91243	94.75802	1516.96338	-57.35895	53.96250	1243.65320	114.99844	633.24158	1267.76038	127.16775	507.90265	1277.12134	217.52852	254.14543	1327.86523	264.38382	74.61986	1372.54944	307.27512	53.04831	1325.98694	114.82841	35.61145	1417.57007	130.38705	1710.52148																								 
